<?xml version="1.0" encoding="UTF-8"?>
<!DOCTYPE svg PUBLIC "-//W3C//DTD SVG 1.1//EN" "http://www.w3.org/Graphics/SVG/1.1/DTD/svg11.dtd">
<!-- Creator: CorelDRAW 2018 (64-Bit) -->
<svg xmlns="http://www.w3.org/2000/svg" xml:space="preserve" width="20.1808mm" height="20.1194mm" version="1.1" style="shape-rendering:geometricPrecision; text-rendering:geometricPrecision; image-rendering:optimizeQuality; fill-rule:evenodd; clip-rule:evenodd" viewBox="0 0 64.77 64.57"
  xmlns:xlink="http://www.w3.org/1999/xlink">
  <g id="Layer_x0020_1">
    <metadata id="CorelCorpID_0Corel-Layer"/>
    <g id="_2283584378192">
      <path fill="currentColor" d="M37.08 26.17c0.79,0.99 0.98,0.74 1.57,2.15 0.38,0.91 0.45,2.05 0.17,3 -1.71,5.76 -10.67,2.46 -8.15,-3.07 0.6,-1.33 3,-1.81 2.47,-8.43 -0.26,-3.25 -0.6,-3.5 -2.21,-5.12 -3.51,-3.54 -5.94,-3.26 -9.34,0.15 -1.89,1.9 -20.89,20.45 -21.39,21.79 -1.06,2.82 2.62,8.43 3.82,10.06 4.27,5.8 8.55,10.13 14.44,14.26 9.53,6.69 9.71,3.46 17.48,-4.34 4.83,-4.85 9.52,-9.49 14.35,-14.35 3.77,-3.8 2.44,-5.75 -0.96,-9.14 -2.36,-2.36 -4.77,-5.05 -7.24,-7.21 0.28,-9.65 -4,-19.72 -9.29,-23.5 -7.64,-5.46 -17.48,-1.23 -19.99,8.21 -2.3,8.66 2.9,6.91 3.63,6.17 1.3,-1.32 0.28,-11.22 8.85,-11.75 7.77,-0.48 12.28,12.99 11.8,21.12z"/>
      <path fill="currentColor" d="M45.29 22.64l-0.2 0.28c2.56,2.79 5.37,5.42 8.07,8.12l4.14 3.98c3.6,3.67 -4.91,8.54 -4.85,17.55 0.05,6.76 9.32,13.84 11.7,6.85 0.95,-2.78 0.73,-20.16 -0.18,-23.19 -1.25,-4.17 -4.24,-6.98 -7.22,-9.03 -2.24,-1.53 -8.16,-4.31 -11.46,-4.57z"/>
      <polygon fill="currentColor" points="45.09,22.93 45.29,22.64 44.74,22.31 "/>
    </g>
  </g>
</svg>
