<?xml version="1.0" encoding="UTF-8"?>
<!DOCTYPE svg PUBLIC "-//W3C//DTD SVG 1.1//EN" "http://www.w3.org/Graphics/SVG/1.1/DTD/svg11.dtd">
<!-- Creator: CorelDRAW 2018 (64-Bit) -->
<svg xmlns="http://www.w3.org/2000/svg" xml:space="preserve" width="18.7642mm" height="18.8288mm" version="1.1" style="shape-rendering:geometricPrecision; text-rendering:geometricPrecision; image-rendering:optimizeQuality; fill-rule:evenodd; clip-rule:evenodd"
viewBox="0 0 35.08 35.21"
 xmlns:xlink="http://www.w3.org/1999/xlink">
 <defs>
  <style type="text/css">
   <![CDATA[
    .fil0 {fill:#FEFEFE}
   ]]>
  </style>
 </defs>
 <g id="Layer_x0020_1">
  <metadata id="CorelCorpID_0Corel-Layer"/>
  <g id="_1375543787504">
   <path class="fil0" d="M16.3 7.64c-5.13,0.76 -9.53,5.16 -8.72,11.28 0.67,5.05 5.3,9.58 11.31,8.69 5.1,-0.76 9.38,-5.28 8.62,-11.26 -0.64,-5.03 -5.3,-9.58 -11.21,-8.71z"/>
   <path class="fil0" d="M11.55 29.79c0.66,-1.33 -0.99,-2.19 -1.8,-1.29 -0.22,0.24 -1.35,2.2 -1.55,2.62 -0.74,1.51 1.05,2.29 1.84,1.32 0.31,-0.39 1.28,-2.16 1.51,-2.64z"/>
   <path class="fil0" d="M0.86 16.32c-1.11,0.34 -1.13,1.72 -0.18,2.09 0.43,0.17 3.23,0.17 3.7,0.04 1.01,-0.28 1.02,-1.76 0.06,-2.12 -0.42,-0.16 -3.14,-0.15 -3.57,-0.02z"/>
   <path class="fil0" d="M18.35 34.48c0.14,-0.35 0.15,-3.01 0.06,-3.48 -0.2,-1.12 -1.65,-1.23 -2.1,-0.34 -0.2,0.4 -0.2,3.01 -0.11,3.57 0.2,1.19 1.72,1.34 2.14,0.26z"/>
   <path class="fil0" d="M16.65 1.54c0,1.11 -0.41,4.35 1.57,3.54 1.01,-0.42 0.69,-2.29 0.69,-3.54 0,-2.06 -2.26,-2.05 -2.26,0z"/>
   <path class="fil0" d="M23.02 29.79c0.06,0.24 1.29,2.33 1.5,2.66 0.77,1.25 2.4,0.56 2.1,-0.78 -0.07,-0.31 -1.25,-2.29 -1.5,-2.68 -0.83,-1.29 -2.38,-0.41 -2.09,0.8z"/>
   <path class="fil0" d="M31.52 8.56c-0.56,0.22 -2.23,1.17 -2.71,1.51 -1.12,0.8 -0.36,2.57 1.14,1.93 0.36,-0.16 2.37,-1.31 2.63,-1.54 0.98,-0.84 0.05,-2.34 -1.07,-1.9z"/>
   <path class="fil0" d="M25.37 2.58c-0.63,0.39 -1.23,1.8 -1.65,2.54 -0.8,1.41 0.27,2.42 1.33,1.85 0.49,-0.27 1.26,-1.9 1.65,-2.52 0.9,-1.44 -0.23,-2.56 -1.33,-1.87z"/>
   <path class="fil0" d="M9.06 2.28c-1.3,0.65 -0.26,1.94 0.2,2.74 0.42,0.73 0.97,2.3 2.2,1.76 1.27,-0.56 0.25,-2.02 -0.17,-2.75 -0.43,-0.76 -1,-2.37 -2.23,-1.75z"/>
   <path class="fil0" d="M31.48 18.99c1.53,-0.02 3.52,0.31 3.61,-1.06 0.1,-1.54 -2.03,-1.19 -3.61,-1.21 -2.09,-0.04 -2.06,2.3 0,2.27z"/>
   <path class="fil0" d="M6.62 24.84c0.72,-0.96 -0.23,-2.32 -1.91,-1.38 -0.52,0.29 -2.27,1.21 -2.5,1.67 -0.54,1.07 0.57,2.07 1.85,1.33 0.58,-0.34 2.27,-1.24 2.56,-1.62z"/>
   <path class="fil0" d="M28.1 24.97c0.18,0.6 1.83,1.37 2.43,1.73 1.9,1.11 2.34,-0.24 2.2,-0.9 -0.15,-0.73 -1.67,-1.4 -2.36,-1.8 -2.21,-1.29 -2.46,0.34 -2.27,0.97z"/>
   <path class="fil0" d="M3.03 8.21c-1.19,0.58 -0.93,1.52 0.46,2.31 0.63,0.36 2.07,1.47 2.93,1.15 0.36,-0.13 1.55,-1.23 -0.63,-2.42 -0.71,-0.39 -1.98,-1.42 -2.77,-1.04z"/>
  </g>
 </g>
</svg>
